<svg width="512" height="512" fill="none" xmlns="http://www.w3.org/2000/svg">
    <g clip-path="url(#clip0)">
        <rect width="512" height="512" rx="40" fill="url(#paint0_linear)"/>
        <path
            d="M512 386.253V472c0 22.091-17.909 40-40 40H40c-22.091 0-40-17.909-40-40V263.957c165.665 64.731 370.513 104.626 512 122.296z"
            fill="url(#paint1_linear)"/>
        <path fill-rule="evenodd" clip-rule="evenodd"
              d="M255.988 104c71.44 0 129.344 27.115 129.344 60.513 0 33.423-57.929 60.513-129.344 60.513-71.416 0-129.345-27.115-129.345-60.513 0-33.398 57.929-60.513 129.345-60.513zM126.643 306.444v46.461c23.014 81.715 250.374 65.931 258.714-4.181v-46.411c-11.359 76.964-240.526 82.506-258.714 4.131zM126 185.492v45.373c23.013 79.809 251.636 69.023 260 .569v-45.348c-11.383 75.184-241.812 75.95-260-.594zm0 58.633v46.461c23.013 81.715 251.636 70.681 260 .569v-46.412c-11.383 76.965-241.812 77.757-260-.618z"
              fill="url(#paint2_linear)"/>
        <g clip-path="url(#clip1)">
            <path d="M351.691 326.154l-3.724-11.285L320.43 309 307 324.236l41.983 21.443 2.708-19.525z"
                  fill="url(#paint3_linear)"/>
            <path d="M338.6 355.723l-.79-23.474-30.81-8.013 7.561 45.255 24.039-.225v-13.543z"
                  fill="url(#paint4_linear)"/>
            <path
                d="M331.941 355.271l1.468-18.621 22.345-22.91 19.976 3.611L386 342.97l-10.721 10.609-17.493-2.822-10.835 11.399-15.01-6.885z"
                fill="url(#paint5_linear)"/>
            <path d="M355.754 313.74l-32.051 28.44 6.207 36.566L356.544 388 386 370.394l-30.246-56.654z"
                  fill="url(#paint6_linear)"/>
            <path d="M370.877 324.123h-48.754v48.754h48.754v-48.754z" fill="#000"/>
            <path
                d="M345.033 363.736H326.75v3.047h18.283v-3.047zM326.524 330.443h8.239c4.853 0 7.787 2.821 7.787 6.997v.113c0 4.74-3.612 7.11-8.239 7.11h-3.385v6.094h-4.402v-20.314zm8.013 10.157c2.257 0 3.499-1.354 3.499-3.047v-.113c0-2.031-1.355-3.047-3.612-3.047h-3.386v6.207h3.499zM343.678 347.823l2.596-3.16c1.806 1.467 3.724 2.483 6.094 2.483 1.806 0 2.935-.677 2.935-1.919v-.113c0-1.128-.677-1.693-4.063-2.595-4.063-1.016-6.772-2.145-6.772-6.208v-.112c0-3.725 2.935-6.095 7.11-6.095 2.935 0 5.53.903 7.562 2.596l-2.37 3.386c-1.806-1.242-3.612-2.032-5.304-2.032-1.693 0-2.596.79-2.596 1.806v.113c0 1.354.903 1.806 4.401 2.708 4.063 1.129 6.433 2.596 6.433 6.095v.113c0 4.062-3.047 6.32-7.448 6.32a13.91 13.91 0 01-8.578-3.386z"
                fill="#fff"/>
        </g>
        <path fill-rule="evenodd" clip-rule="evenodd"
              d="M294.409 141.235c.029.108.044.219.044.33v17.302a1.253 1.253 0 01-.635 1.094l-14.55 8.361v16.572c0 .451-.24.867-.632 1.095l-30.372 17.45c-.07.039-.146.064-.222.091-.028.01-.055.027-.085.035a1.27 1.27 0 01-.648 0c-.034-.01-.066-.028-.099-.041-.07-.025-.142-.047-.209-.085l-30.366-17.45a1.267 1.267 0 01-.635-1.095v-51.906c0-.113.016-.224.044-.331.01-.036.032-.069.044-.106.024-.066.046-.134.081-.195.024-.041.059-.074.087-.112.036-.051.069-.103.112-.147.036-.036.084-.063.125-.094.046-.038.087-.079.139-.109h.002l15.183-8.725a1.268 1.268 0 011.264 0l15.184 8.725h.003c.051.031.094.071.139.107.041.032.087.06.124.095.044.045.075.097.113.148.027.038.064.071.086.112.036.063.057.129.082.195.012.037.035.07.044.108.029.107.044.218.044.329v32.42l12.653-7.271v-16.574c0-.11.016-.222.044-.328.011-.037.032-.07.044-.107.026-.066.048-.134.083-.195.023-.041.058-.074.085-.112.038-.051.069-.103.114-.147.036-.036.082-.063.123-.095.047-.037.088-.078.139-.108h.002l15.185-8.725a1.262 1.262 0 011.264 0l15.184 8.725c.053.031.095.071.142.107.039.031.085.06.122.095.044.045.075.097.113.148.029.038.064.071.086.112.036.061.057.129.082.195.014.037.035.07.044.107zm-2.487 16.902v-14.388l-5.313 3.053-7.341 4.218v14.388l12.656-7.271h-.002zm-15.184 26.027v-14.397l-7.22 4.116-20.619 11.744v14.533l27.839-15.996zm-58.207-48.992v48.992l27.837 15.995v-14.53l-14.543-8.214-.004-.003-.007-.003c-.049-.029-.09-.07-.136-.105-.039-.031-.085-.056-.12-.091l-.003-.005c-.041-.039-.069-.088-.104-.132-.032-.043-.07-.079-.095-.123l-.002-.005c-.028-.047-.045-.104-.066-.158-.02-.047-.047-.091-.06-.142v-.001c-.016-.06-.019-.123-.025-.185-.007-.047-.019-.094-.019-.142v-33.877l-7.339-4.219-5.314-3.05v-.002zm13.92-9.452l-12.651 7.268 12.648 7.268 12.649-7.269-12.649-7.267h.003zm6.579 45.359l7.339-4.217v-31.69l-5.313 3.053-7.341 4.218v31.69l5.315-3.054zm38.974-36.782l-12.65 7.268 12.65 7.268 12.648-7.27-12.648-7.266zm-1.266 16.723l-7.34-4.218-5.314-3.053v14.388l7.339 4.217 5.315 3.054V151.02zm-29.106 32.423l18.554-10.571 9.274-5.283-12.64-7.263-14.553 8.362-13.264 7.621 12.629 7.134z"
              fill="#FF2D20"/>
    </g>
    <defs>
        <linearGradient id="paint0_linear" x1="0" y1="0" x2="512" y2="512" gradientUnits="userSpaceOnUse">
            <stop stop-color="#FF2C22"/>
            <stop offset="1" stop-color="#2800E0"/>
        </linearGradient>
        <linearGradient id="paint1_linear" x1="-224.5" y1="322" x2="610" y2="524" gradientUnits="userSpaceOnUse">
            <stop stop-color="#5000FF"/>
            <stop offset="1" stop-color="#E60804" stop-opacity=".937"/>
        </linearGradient>
        <linearGradient id="paint2_linear" x1="256" y1="104" x2="256" y2="407.994" gradientUnits="userSpaceOnUse">
            <stop stop-color="#80004D"/>
            <stop offset="1" stop-color="#140606"/>
        </linearGradient>
        <linearGradient id="paint3_linear" x1="307.63" y1="361.869" x2="340.798" y2="318.057"
                        gradientUnits="userSpaceOnUse">
            <stop offset=".016" stop-color="#765AF8"/>
            <stop offset=".382" stop-color="#B345F1"/>
            <stop offset=".758" stop-color="#FA3293"/>
            <stop offset=".941" stop-color="#FF318C"/>
        </linearGradient>
        <linearGradient id="paint4_linear" x1="310.081" y1="363.599" x2="343.195" y2="319.858"
                        gradientUnits="userSpaceOnUse">
            <stop offset=".016" stop-color="#765AF8"/>
            <stop offset=".382" stop-color="#B345F1"/>
            <stop offset=".758" stop-color="#FA3293"/>
            <stop offset=".941" stop-color="#FF318C"/>
        </linearGradient>
        <linearGradient id="paint5_linear" x1="364.396" y1="361.371" x2="345.681" y2="316.954"
                        gradientUnits="userSpaceOnUse">
            <stop offset=".183" stop-color="#765AF8"/>
            <stop offset=".238" stop-color="#8655F6"/>
            <stop offset=".345" stop-color="#9F4CF3"/>
            <stop offset=".443" stop-color="#AE47F2"/>
            <stop offset=".522" stop-color="#B345F1"/>
        </linearGradient>
        <linearGradient id="paint6_linear" x1="378.4" y1="373.711" x2="334.873" y2="340.054"
                        gradientUnits="userSpaceOnUse">
            <stop offset=".016" stop-color="#765AF8"/>
            <stop offset=".382" stop-color="#B345F1"/>
        </linearGradient>
        <clipPath id="clip0">
            <path fill="#fff" d="M0 0h512v512H0z"/>
        </clipPath>
        <clipPath id="clip1">
            <path fill="#fff" transform="translate(307 309)" d="M0 0h79v79H0z"/>
        </clipPath>
    </defs>
</svg>
