<svg width="512" height="512" viewBox="0 0 512 512" fill="none" xmlns="http://www.w3.org/2000/svg">
    <path fill-rule="evenodd" clip-rule="evenodd"
          d="M512 114.146C512 113.421 511.902 112.697 511.713 111.992C511.677 111.845 511.612 111.708 511.546 111.568C511.504 111.479 511.461 111.388 511.426 111.294C511.391 111.203 511.358 111.111 511.324 111.019C511.2 110.677 511.076 110.335 510.89 110.022C510.796 109.845 510.664 109.692 510.532 109.536C510.463 109.456 510.394 109.375 510.329 109.291C510.255 109.191 510.184 109.09 510.114 108.99C509.952 108.758 509.793 108.53 509.592 108.325C509.438 108.179 509.26 108.049 509.085 107.922C508.986 107.85 508.888 107.778 508.796 107.705C508.7 107.632 508.608 107.557 508.516 107.481C508.312 107.314 508.108 107.146 507.869 107.007L408.775 50.0719C407.522 49.3476 406.099 48.9691 404.651 48.9691C403.202 48.9691 401.779 49.3476 400.526 50.0719L301.426 107.007H301.413C301.186 107.14 300.989 107.307 300.79 107.476C300.697 107.555 300.603 107.635 300.505 107.712C300.413 107.784 300.316 107.852 300.219 107.921C300.038 108.05 299.856 108.178 299.703 108.331C299.492 108.538 299.328 108.771 299.16 109.009C299.095 109.103 299.029 109.197 298.959 109.291C298.889 109.389 298.811 109.481 298.734 109.574C298.614 109.717 298.495 109.86 298.404 110.022C298.229 110.327 298.103 110.659 297.978 110.992C297.94 111.093 297.902 111.194 297.862 111.294C297.825 111.409 297.774 111.519 297.723 111.628C297.668 111.747 297.613 111.866 297.575 111.992C297.392 112.684 297.288 113.415 297.288 114.133V222.286L214.712 269.733V58.1766C214.712 57.4523 214.614 56.7279 214.425 56.0297C214.392 55.891 214.331 55.7625 214.269 55.6339C214.221 55.5326 214.172 55.4313 214.138 55.3249C214.105 55.2392 214.074 55.1535 214.042 55.068C213.916 54.7237 213.791 54.3818 213.603 54.0525C213.516 53.8907 213.393 53.748 213.271 53.6056C213.191 53.5125 213.111 53.4196 213.041 53.3216C212.967 53.2214 212.896 53.1206 212.826 53.0206C212.664 52.7886 212.505 52.561 212.304 52.3558C212.15 52.2098 211.971 52.0825 211.793 51.9551C211.692 51.8832 211.591 51.8113 211.495 51.736C211.416 51.6735 211.339 51.6091 211.262 51.5445C211.048 51.3663 210.832 51.1861 210.587 51.0377H210.568L121.738 0H472C494.091 0 512 17.9086 512 40V114.146ZM512 227.05C512 228.498 511.621 229.921 510.89 231.174C510.166 232.433 509.115 233.471 507.856 234.189L412.9 288.748V322.894C454.16 324.467 486.364 338.246 486.421 355.099C486.477 371.994 454.24 385.996 412.9 387.804V396.889C412.9 397.057 412.895 397.225 412.884 397.391C444.775 396.304 474.937 388.283 484.23 373.5C484.6 372.912 486.905 373.225 486.907 373.892L486.965 391.18C483.759 414.032 427.032 425.155 380.761 420.128L369.363 426.676C412.358 434.76 470.703 427.451 484.327 405.303C484.691 404.711 487.011 405.02 487.013 405.688L487.072 423.381C482.834 454.345 384.919 464.271 341.466 442.702L334.166 446.895C368.782 470.973 465.96 466.135 484.037 436.365C484.397 435.771 486.707 436.077 486.709 436.745L486.768 454.423C481.609 492.223 337.636 501.225 322.764 457.297C322.748 457.25 322.739 457.199 322.739 457.15L322.727 453.467L220.838 512H472C494.091 512 512 494.091 512 472V227.05ZM192.044 512L4.1441 404.034C2.88454 403.31 1.84038 402.272 1.10944 401.013C0.385034 399.76 0 398.337 0 396.889V472C0 494.091 17.9086 512 40 512H192.044ZM347.077 420.455C336.198 416.14 327.886 410.334 323.935 403.019C323.62 402.437 322.149 402.641 322.151 403.282L322.219 423.55C322.219 423.599 322.228 423.649 322.244 423.697C323.257 426.691 324.875 429.452 327.011 431.984L214.705 496.507V401.672L349.269 325.03L396.388 298.177V322.922C354.823 324.646 322.343 338.701 322.4 355.647C322.456 372.563 354.916 386.382 396.388 387.869V392.125L388.174 396.844C358.66 394.498 331.966 386.029 323.824 371.293C323.505 370.714 322.043 370.922 322.045 371.561L322.112 391.348C322.112 391.398 322.12 391.449 322.137 391.497C326.04 402.754 338.887 410.623 355.807 415.44L347.077 420.455ZM92.9617 0H40C17.9086 0 0 17.9086 0 40V58.1766C0 57.4392 0.104461 56.7148 0.287194 56.0166C0.321791 55.8921 0.37838 55.773 0.435589 55.6527C0.486296 55.546 0.537491 55.4384 0.574289 55.3249C0.59756 55.2609 0.620545 55.1966 0.643563 55.1323C0.77547 54.7634 0.908489 54.3914 1.10297 54.0525C1.19895 53.8885 1.32187 53.7442 1.44472 53.5999C1.52234 53.5088 1.59993 53.4176 1.67069 53.3216C1.71582 53.2577 1.76023 53.1935 1.80453 53.1295C1.99078 52.8604 2.1749 52.5943 2.40162 52.3624C2.55712 52.2069 2.74694 52.0771 2.93511 51.9485C3.03123 51.8828 3.12692 51.8174 3.21739 51.749C3.29642 51.6837 3.37319 51.6171 3.44961 51.5508C3.66347 51.3651 3.87456 51.1819 4.12458 51.0377H4.13763L92.9617 0ZM495.482 128.397V222.286H495.495L412.9 269.733V175.844L460.809 148.32L495.482 128.397ZM16.5179 392.125V72.4413L51.198 92.344L99.0939 119.875V340.919V340.939C99.0939 341.161 99.1332 341.38 99.1724 341.598C99.1885 341.687 99.2046 341.776 99.2178 341.866C99.2252 341.942 99.2319 342.019 99.2386 342.096C99.2674 342.425 99.2963 342.755 99.381 343.073V343.079C99.438 343.303 99.5365 343.507 99.6346 343.709C99.6822 343.807 99.7298 343.906 99.7725 344.006C99.8078 344.097 99.8414 344.189 99.875 344.281C99.9716 344.546 100.068 344.809 100.203 345.037L100.216 345.07C100.318 345.249 100.453 345.407 100.591 345.57C100.674 345.668 100.758 345.767 100.836 345.872C100.915 345.971 100.988 346.074 101.061 346.176C101.201 346.372 101.34 346.567 101.515 346.734L101.535 346.766C101.676 346.908 101.845 347.024 102.013 347.14C102.117 347.212 102.221 347.283 102.318 347.36C102.424 347.441 102.525 347.526 102.627 347.611C102.813 347.767 102.998 347.923 103.205 348.045L103.251 348.065L103.277 348.084L198.188 401.685V496.5L16.5179 392.125ZM107.353 10.755L107.363 10.7493H107.343L107.353 10.755ZM107.353 10.755L24.7996 58.1766L107.343 105.604L189.893 58.17L107.353 10.755ZM198.194 279.221L150.298 306.739L115.612 326.668V119.875L163.52 92.3506L198.194 72.4282V279.221ZM322.094 114.146L404.651 66.7184L487.194 114.133L404.651 161.573L322.094 114.146ZM348.486 148.32L396.388 175.844V269.733L361.702 249.804L313.806 222.286V128.397L348.486 148.32ZM327.524 318.439L206.437 387.42L124.017 340.867L210.581 291.137L305.557 236.57L388.048 283.965L327.524 318.439Z"
          fill="#FF2D20"/>
</svg>
